<?xml version="1.0" encoding="UTF-8"?>
<svg id="Calque_1" data-name="Calque 1" xmlns="http://www.w3.org/2000/svg" viewBox="0 0 595.28 237.82">
  <defs>
    <style>
      .cls-1 {
        fill: black;
      }

      .cls-2 {
        fill: black;
        stroke: black;
        stroke-miterlimit: 10;
      }
    </style>
  </defs>
  <path class="cls-1" d="M306.78,145.03c.29,.88,.38,1.86,.22,2.91l-2.1,13.24c-.58,3.66-4.01,6.62-7.67,6.62h-26.47c-3.66,0-6.15-2.96-5.57-6.62l2.1-13.24c.17-1.05,.57-2.03,1.14-2.91h-33.77s-3.61,22.76-3.61,22.76c-1.16,7.3,3.84,13.24,11.14,13.24h79.41c7.3,0,14.18-5.94,15.33-13.24l3.61-22.76h-33.77Zm-52.03,19.46c-.29,1.82-2.01,3.31-3.83,3.31h-6.62c-1.82,0-3.07-1.49-2.78-3.31l1.05-6.62c.29-1.82,2.01-3.31,3.83-3.31h6.62c1.82,0,3.07,1.49,2.78,3.31l-1.05,6.62Zm72.79,0c-.29,1.82-2.01,3.31-3.83,3.31h-6.62c-1.82,0-3.07-1.49-2.78-3.31l1.05-6.62c.29-1.82,2.01-3.31,3.83-3.31h6.62c1.82,0,3.07,1.49,2.78,3.31l-1.05,6.62Z"/>
  <path class="cls-1" d="M255.42,97.55c-1.82,0-3.07-1.49-2.78-3.31l1.05-6.62c.29-1.82,2.01-3.31,3.83-3.31h6.62c1.82,0,3.07,1.49,2.78,3.31l-1.05,6.62c-.29,1.82-2.01,3.31-3.83,3.31h19.85s26.47,0,26.47,0h19.85c-1.82,0-3.07-1.49-2.78-3.31l1.05-6.62c.29-1.82,2.01-3.31,3.83-3.31h6.62c1.82,0,3.07,1.49,2.78,3.31l-1.05,6.62c-.29,1.82-2.01,3.31-3.83,3.31h13.24s6.29-39.71,6.29-39.71c1.16-7.3-3.84-13.24-11.14-13.24h-79.41c-7.3,0-14.18,5.94-15.33,13.24l-6.29,39.71h13.24Zm75.25-36.4c.29-1.82,2.01-3.31,3.83-3.31h6.62c1.82,0,3.07,1.49,2.78,3.31l-1.05,6.62c-.29,1.82-2.01,3.31-3.83,3.31h-6.62c-1.82,0-3.07-1.49-2.78-3.31l1.05-6.62Zm-50.16,3.31c.58-3.66,4.01-6.62,7.67-6.62h26.47c3.66,0,6.15,2.96,5.57,6.62l-2.1,13.24c-.58,3.66-4.01,6.62-7.67,6.62h-26.47c-3.66,0-6.15-2.96-5.57-6.62l2.1-13.24Zm-22.64-3.31c.29-1.82,2.01-3.31,3.83-3.31h6.62c1.82,0,3.07,1.49,2.78,3.31l-1.05,6.62c-.29,1.82-2.01,3.31-3.83,3.31h-6.62c-1.82,0-3.07-1.49-2.78-3.31l1.05-6.62Z"/>
  <g>
    <path class="cls-2" d="M169.45,108.1c-.23,.69-1.15,.96-2.04,1.11-.54,.5-1.65,.42-2.23,.92-2.54,.04-4,1.11-6.46,1.27-.27,.27-.92,.15-1.08,.58-2.07,.19-4.04,.73-6.11,1.08-2,.31-4.04,.62-6.07,.92-.81,.38-1.54,.81-2.58,.92-.88,1.96-1.54,4.11-2.23,6.11,.04,.08,.08,.12,.12,.12,.23,0,.35-.92,.61-1.04h.12c.27,0,.35-.23,.61-.23,.04,0,.12,.04,.19,.04,.61-1,1.65-1.54,2.23-2.57,1.08-.54,1.23-1.96,2.77-2.04,.23,.15,.38,.65,.38,1.11s-.15,.92-.58,.92c-.23,.27-.15,.73-.61,.73h-.12c0,.08,.04,.15,.04,.23,0,.35-.35,.38-.42,.69,.12,.11,.27,.15,.42,.15,.46,0,1.08-.27,1.42-.35,2.57-.58,5.11-1.15,7.96-1.46,1.11-.38,2.46-.62,3.84-.77,.08,0,.12,.04,.19,.04,.42,0,.85-.23,1.19-.23,.15,0,.31,.08,.46,.19-.08,1.27-1.73,1-2.38,1.69-1.27,.73-2.88,.65-4.61,1.11-.12,0-.15,.15-.19,.15-.88,.19-1.88,.19-2.77,.38,.04,.15-1.65,.58-2.08,.58-.12,0-.19,0-.31-.04-.62,.27-1,.58-1.84,.58-.27,.5-1.08,.5-1.84,.54-.08-.04-.12-.04-.15-.04-.27,0-.08,.46-.38,.46-.08,0-.19-.04-.27-.04s-.12,.04-.12,.15h-.19c-.46,0-.69,.23-1.15,.23-.12,0-.19,0-.31-.04-.92,.69-1.61,1.58-2.42,2.42-1.61,1.69-4.07,5.23-5.3,7.3-.58,.96-1.58,2.77-2.54,2.77-.38,0-1.35-.04-1.35-.27,0-2,1.46-2.5,1.84-4.19,.88-.54,1.19-1.61,2.04-2.19-.04-.08-.04-.15-.04-.23,0-.23,2.61-4.11,2.96-4.11,0-1,.58-1.35,.58-2.31,0-.15,0-.31-.04-.46,.85-.85,1.58-2.73,2.04-4.27,.27-.92,.19-3.42,1.27-3.42,.15,0,.31,.04,.58,.12,.54-.42,.42-.73,1.46-1.11,1.08-.38,3.23-.5,4.8-.73,.23-.04,.31-.19,.38-.19,1.65-.27,3.23-.42,4.8-.73,1.5-.27,2.96-.77,4.42-1.11s2.92-.42,4.23-1.11c.15,.04,.31,.04,.42,.04,.62,0,1-.19,1.58-.19h.23c.58-.5,1.54-.31,2.38-.77,.12-.08,.19-.35,.42-.35h.15c.19,0,.31-.04,.35-.19,.69,.12,1.27,.31,1.31,1.11Z"/>
    <path class="cls-2" d="M166.14,130.97c-.08-.27-1.27,.31-1.31,.54-.92,.5-2.15,.69-3.15,1.11-.19,.42-.54,.08-.92,.19-.08,.04-.46,.35-.54,.38-.96,.15-1.96-.04-2.77,.15-.12-.5-.77-.46-.73-1.08-.15-.69-.04-1.35,.12-1.69,.35-.73,1.31-2.31,1.92-2.77,1.19-1,2.54-3.34,3.8-4.27,.12-.42,.54-.58,.92-.73,.04-.54,.58-.54,.73-.92,.35-.23,.62-.5,.92-.77,.35-.15,.23-.73,.92-.54,.77-.08,.5,.85,.92,1.11-.19,1.15-1.35,1.35-1.65,2.38-.96,.35-1.15,1.5-1.88,2.04-.96,.38-1.84,2.27-2.69,2.81-.46,.81-1.5,1.08-1.65,2.23,.77,.5,1.92-.15,2.42-.58,1.38-.11,2.46-.73,3.5-1.27,1-.54,1.92-.96,2.92-1.54,.77-.31,.77-.85,1.42-1.23,.81-.23,1.58-.92,2.54-1,.42,1.19-.27,2.34-2,3.23-.27,.38-.88,.58-1.19,.92-.5,.58-2.15,.46-2.57,1.27Zm7.73-21.6c.38,.73,.5,1.73,.58,2.77-.5,.65-1.81,.31-2.42,0-.04-1.58-.04-3.11,1.84-2.77Z"/>
    <path class="cls-2" d="M184.09,128.04c0-.08-1.73,2-2.31,2.27-.5,.23-.88,1-1.38,1-.46,.31-1.77,1.46-1.92,1.46-.23,0-.92,.73-1.38,.73-.08,0-.19-.04-.23-.04-.35,0-1.77,.65-2.31,.77-1.04,0-1.19,.19-1.65,.19-1.08-.04-2.11-.42-2.96-.92-.27-.69-.58-1.31-.58-2.23,0-1.85,1.08-4,2.23-5.88,.23-.38,.42-1,.73-1.5,1.5-2.46,3.15-5,4.8-7.38,.19-.35,.46-.65,.58-1.11,.46-.23,1.58-1.5,1.84-2.58,2.11-1.73,2.34-3.15,5.69-6.26,1.04-.96,3.15-1.65,3.15-2.23,.46,0,.62,.23,1.04,.23,.08,0,.15,0,.27-.04,.15,.54,.38,1,.38,1.69,0,1-.58,3.27-1.15,4.42-.19,.35-.54,.46-.54,.92-1.31,3.54-3.15,6-5.73,8.65-.77,.81-1.77,1.5-2.19,2.58-1,.46-2.54,1.42-2.77,2.04-.35,0-.35,.12-.38,.38-.85,.23-1.54,.69-2.23,1.11-.46,.61-1.46,.73-1.65,1.65-.81,.11-1,.85-1.84,.92-.15,.62-.38,1.38-.38,2.15,0,1.23,.85,1.35,1.61,1.35,3.04,0,5.8-2.04,7.38-3.11,1.73-1.19,3.15-2.23,4.15-3.31,.12,.04-.27,2.23-.27,2.07Zm2.46-20.37c-.85,1.04-2.04,2.04-2.77,2.96-.42,.54-1.84,1.81-1.84,2,0,.62-.54,.62-.54,1.31-1.35,.62-1.69,1.92-1.69,2.23-1.27,.69-1.73,2.31-2,2.57-.15,.12-.5-.04-.58,.19-.23,1.61-.92,1.58-.92,1.96,0,.19-.38,.11-.38,.31,0,.15-.58,1.23-.85,1.23,0,0-.46,1.15-.46,1,0,.38-1.08,1.96-1.38,2.23,1.38,0,4.42-3.38,5.57-4,.08,0,.19,.04,.23,.04,.42,0,1.81-1.77,2.27-2.23,1.5-1.5,2.77-3.23,4.23-4.8,.27-1.04,.85-1.96,1.31-2.96,.23,.12,.19-.11,.19-.27,0-.5,.77-2,1.27-2.65-.04-.12-.04-.23-.04-.35,0-.58,.35-.96,.35-1.35,0-.35-.31-.46-.58-.46-.58,0-1,.65-1.38,1.04Z"/>
    <path class="cls-2" d="M211.57,130.7c-1.88,.46-2.08,1.31-3.92,1.81-1.61,.35-3.8,1.46-5.53,.54-1-.92-.35-2.73-.19-4.04,.38-.08,.19-.69,.58-.77,.04-.31-.19-.92,.35-.73-.12-.85,.31-1.19,.58-1.65,.27-.42,.38-1.08,.73-1.46,.27-.5,.65-.85,.73-1.5-1.08,.04-1.46,.92-2.23,1.5-1.54,1.15-2.61,2.77-4.04,4.23-.46,.46-.92,.92-1.5,1.31-.65,1.19-1.54,2.11-2.38,3.11-1.04-.23-1.11,.5-2.04,.38-.12-.54-.65-.92,0-1.31,.08-.54,.12-1.11,.58-1.27,.42-.88,1-1.58,1.27-2.61,.69-.58,.88-1.73,1.5-2.38,.15-1.08,.54-1.92,.73-2.96-.81-.42-1.65,.54-2.23,.92-.73,.35-1.31,.88-1.84,1.5-.81,.35-1.31,1-1.84,1.65-.92,.15-1,1.19-2.04,1.27-.77,.96-1.54,1.92-2.58,2.61,.04,.35-.38,.54-.54,.73-.19,.23-.19,.69-.58,.73-.15,.69-.81,.92-1.08,1.46-1.04-.15-1.88,.54-2.42-.15,.04-.19,0-.38,0-.58,.04-.35,.12-.46,.38-.73,.88-.92,1.19-2.81,2.04-4.07,.31-.96,.92-1.65,1.27-2.58,.23-.42,.46-.81,.5-1.19,.23-1.08,.54-1.58,1-3.38,.35-.85-.73-.23-.58-.92-.15-.88,.81-.69,.77-1.46,.65-.08,.54-.92,.92-1.31,.04-.19,.35-.11,.35-.35h.38c1.81,.61,.88,3.77-.19,4.8,0,.42-.19,.88-.19,1.31-.31,.62-.23,.62-.42,1.31,.08,.54-.5,1.08-.5,1.92,.12,.46,.5-.35,.92-.15,.15-.35,.69-.31,.73-.77,.77-.19,1.27-.69,1.65-1.27,.69-.31,1.27-.73,1.84-1.11,.54-.46,1.35-.65,1.69-1.31,1.65-.23,2.34-1.46,4.04-1.65,1.35,1.19,.38,3.46,.19,5.19,.04,.42,.5-.23,.73-.19,.12-.27,.31-.46,.58-.58,.23-.54,.81-.77,1.27-1.08,.65-.92,1.88-1.19,2.42-2.23,1.42-.42,2.15-1.54,3.5-2.04,1.42,.77,.81,3.07,0,4.07-.5,1.96-1.84,3.07-2.42,4.96-.35,.85-.81,1.65-.73,2.96,1.42,.65,2.38-.65,3.69-.73,.19-.12,.19-.42,.58-.38,.23-.23,.62-.23,.92-.35,.65-.31,.88-.31,1.65-.77,.96-.54,.69-1.08,1.81-1.42,1.04-.85,4-4.34,3.46-.38-1.08,.65-3.04,3.07-4.3,3.54Z"/>
    <path class="cls-2" d="M209.81,130.97c0-.73,0-1.81-.08-1.81,1.54-.42,3.34-2.31,4.65-3,1.61-1.04,3.8-3,5.53-3.88,.92-.54,1.73-1.19,2.61-1.73,.77-.46,1.54-1.15,2.57-1.27,.19,.31,.46,.62,.73,.92,.19,.65-.31,1.19-.54,1.65-.38,.73-.85,1.38-1.31,2.07-.04,.08,.08,.31,0,.35-.35,.31-2.08,3.5-2.27,4.23-.5,.46-1.11,.85-1.27,1.65,.42,.54,1.08-.27,1.84,0,1.61-.38,3.34-.85,4.96-1.27,1.84-.85,3.8-1.69,5.5-2.69,0,.81,.15,1.81-.12,1.58-.42,.15-1,.81-1.38,.96-.12,.04-.46,.35-.58,.35-.23,.08-.35,.08-.54,.19-.62,.27-.88,.69-1.38,.96-.19,.12-.38,.15-.58,.19-.38,.15-.85,.38-1.27,.5-.42,.11-.54,.23-1.11,.38-.5,.12-1.84,.42-2.57,.88-2.08,.23-4.34,1.31-6.65,1.08-.73-.04-1.42-.5-2.23-.54-.5-.5-1.04-1.04-1.84-1.31-.19-.5-.19-1.08,0-1.58-.58-.15-.58,.27-.92,.35-.12,.27-.69,.04-.73,.38-.46,.27-1.04,.54-1.04,.38Zm8.61-1.73c.58-.5,2.31-2.69,2.42-3.61,.5-.19,.65-1.5,1.11-1.69-.04-.42,.04-.69,.38-.73-.04-.23-.08-.46-.38-.38-.04,.27-.31,.31-.35,.54-1.35,.35-1.54,1.77-2.92,2.07-.88,.81-3.8,3.04-4.88,3.69,.92,.77,1.5,1.77,3.11,1.58,.73-.27,1.19-.77,1.5-1.46Z"/>
    <path class="cls-2" d="M274.22,125.82c-.96,.61-1,1.35-1.77,1.77-.69,.54-.58,.54-1.38,.96-.42,.73-1.23,.73-1.92,1.23-.96,.69-2.61,1.58-2.69,1.54-.46,.12-1.88,.88-2.07,1.04-.85,.11-1.58,.38-2.46,.58-.46,.11-.5,.38-1.27,.38-.69,.54-2.34,.62-3.38,.62s-1.73-.08-1.73-1.54c0-1.73,1.04-2.92,1.61-4.34-.04-.11-.08-.15-.12-.15-.19,0-.54,.54-.69,.54-.08,0-.08,.46-.15,.46-.31,0-.54,.81-1.04,.81-.04,0-.12,0-.15-.04-.46,.69-1.5,.81-2,1.46-.88,.35-1.61,.88-2.42,1.31-.69,.5-1.5,.65-2.04,1.31-1.11,.23-2.27,.15-3.19,.58h-2.04c-.42-.58-.96-1.23-.96-1.77,0-1.27,.46-2.07,.58-3.19,1.38-1.38,2.42-3.88,4.07-4.42,.42-.69,1.27-.96,1.65-1.69,.08,.04,.15,.04,.23,.04,.42,0,.61-.42,.88-.58,.38-.19,.92-.12,1.11-.54,.96-.42,1.73-.58,2.38-.92,.42-.23,1.19-.19,1.5-.58,.85-.11,1.81-.15,2.57-.35,1.54,.19,2.96,.61,4.04,1.27,2-2.15,3.8-4.65,5.53-7.07,.77-1.38,2.11-2.19,2.77-3.69,.54-.58,1.27-.96,1.5-1.84,.19-.31,.73-.27,.73-.81v-.11c.38-.04,.35-.54,.77-.54h.15c.27-.69,.69-1.27,1.11-1.85,.81-.69,1.96-1,2.38-2.04h.54c.35,0,.62,.04,.77,.19v.12c0,.19,.19,.15,.19,.35,0,1.38-1.23,1.5-1.31,3.04-.42,.12-.5,.62-.92,.73-.15,1.11-.85,1.81-1.31,2.57-.42,.65-1,1.92-1.65,2.04-.42,2.15-2.08,3.07-2.96,4.8-1.11,.96-3.23,3.54-3.8,3.54-.08,0-.15,0-.23-.04,0,.88-1.54,1-1.65,2.04-1.31,.69-2.15,2.88-3.11,2.88-.08,0-.15,0-.23-.04-.54,.69-.92,1.54-1.65,2-.12,1.69-1.31,2.27-1.46,3.88,.12,.23,.38,.31,.65,.31,.96,0,1.31-.65,2.19-.65h.27c.96-.58,1.65-.15,2.57-.62,.96-.46,.92-.35,1.92-.65,1.73-1.23,1.19-.88,2.88-1.69,.85-.58,.81-.23,1.46-.96,1.11-.35,.92-.69,2.04-.96,.85-.65,1.61-1.04,2.23-1.77,.46,.58,.04,.65,.46,1.08Zm-15.6-3.11c0-.35-.88-.08-.88-.27,0-.31,.31-.27-.19-.27h-.46c-1.19,0-2.15,.23-3.07,.54-.04,0-.04,.15-.15,.19-.96,.31-1.88,.38-2.61,1.11-4,2.19-6.11,5.42-6.26,5.53-.35,.77-.92,1.31-.92,2.46,0,.46,.23,.46,.5,.46,.31,0,.65-.11,.92-.11,.15,0,.31,.04,.42,.11,.61-.31,1.19-.65,2.04-.73,.58-.38,1.15-.81,2.04-.92,1.92-1.58,4.65-2.34,6.26-4.23,.04,0,.08,.04,.12,.04,.54,0,1.23-.96,1.23-.77,0-.04,0-.11-.04-.19,.61-.15,2.19-1.46,2.19-2.07,0-.31-.54-.88-1.11-.88Zm13.3-11.88c-.27,.35-.42,.77-.73,1.11-.12,.12-1.04,1-.92,1-.35,0-.31,1.04-.77,1.04h-.12s-.08,.04-.08,.08c0,.58-.69,1.27-1.27,1.38,0,.88-.77,1.08-.92,1.84-.27,.27-.69,.38-1.11,.58,.04,.11,.04,.19,.04,.27,0,.46-.81,.77-.81,1.35,0,.08,.08,.15,.23,.23,.88-.85,1.96-1.77,2.57-2.61,.65-.88,2.42-2.5,2.42-2.61,0-.04-.04-.15-.04-.23,0-.12,.35-.15,.35-.73,0-.42,3.04-3.57,3.04-4.54,0-.08,0-.15-.04-.19-.58,.73-1.27,1.35-1.84,2.04Z"/>
    <path class="cls-2" d="M286.87,129.16c-.58,.92-5.69,3.96-8.57,4.15-2.42,.15-4.65-.42-6.11-1.42-.88-.11-1.19-1.15-1.11-1.84-.15-.77-.38-1.73-.15-2.61,0,0,.15-.08,.15-.19,.12-.38,.73-2.23,1.19-2.42,.19-.54,.38-1.11,.92-1.31,.42-1.04,1.46-1.5,2-2.38,1.04-.46,2.04-.92,2.77-1.69,1.35,.11,1.88-.58,3.15-.54,.54,.42,.58,.92,.54,1.65,0,.31-.08,.23-.15,.38-.15,.27-.08,.92-.38,1.27,0,1.5-1.42,3.15-1.54,4.5-.54,.27-.92,1.08-1.27,1.5-.35,.42-.88,.58-1.11,1.08-.88,.31-1.35,1-2.23,1.31,.58,.5,1.5,.73,2.04,.88h.38c2.04-.12,5.07-1.38,6.69-2.58,.35-.27,1.11-.65,1.46-.81,.35-.11,1.08-.5,1.46-.5,0,.08,0,1.38-.12,1.58Zm-8.72-7.69c-1.11,.62-1.73,1.77-2.77,2.23-.69,1.27-2.42,3.46-2.46,5.42,.58,.04,1.27-.27,1.5-.38,.46-.27,.73-.42,1.11-.73,1.15-.92,2.65-3.57,3.34-4.69,.35-.54,.77-1.11,.77-1.85-.04-.11-.04-.35-.19-.35-.5,.35-1,.19-1.31,.35Z"/>
    <path class="cls-2" d="M308.44,123.47c-.54,.85-1.15,1.58-1.69,2.38-.15,.19-.38,.38-.54,.58-.12,.15-.65,.5-.73,.73-.08,.15-.04,.85-.58,.73-.19,1.15-1.31,1.42-1.46,2.58-.12,.27-.38,.35-.73,.38-.04,.31,.08,.69-.19,.73,.04,.65-.65,.58-.92,.92,.08,1.35-.96,1.5-1.11,2.58-.31,.31-.54,.69-.73,1.11-.46-.15-1,.58-1.31,0-.38,.08-.35-.27-.35-.54-.31-1.5,.77-3.15,1.46-4.27,.04-.58,.54-.69,.73-1.08,.11-.5,.27-.88,.58-1.11,.27-.96,.96-1.73,1.46-2.57,.46-.81,.85-1.65,1.31-2.61,.27-.54,.42-1.19,.92-1.65,.69-1.61,1.69-2.96,2.57-4.42,.31-.31,.35-.88,.73-1.11,.35-.84,1.04-1.31,1.31-2.19,.31-.27,.73-.38,.73-.92,.73-.46,1.11-1.27,1.65-1.84,.54-.12,.46-.81,.92-.92,.27-.38,.62-.62,.92-.92,.27-.31,.5-.61,.73-.92,.62,.04,.42-.73,.92-.77,1.81-1.65,3.8-3.07,6.3-4.04,.23-.08,.27-.35,.54-.38h2.96c.5,.31,1,.58,1.65,.73,.58,.62,.96,1.38,1.65,1.84,.08,.73,.27,1.35,.58,1.85,.23,2.23-.54,3.46-.58,5.38-.54,.73-.96,1.61-1.11,2.77-.62,.54-.92,1.38-1.27,2.19-1.04,1.15-2.27,2.04-3.15,3.34-.85,.15-1.42,.65-2.04,1.08-.38,.11-.5,.46-1.08,.38-.31,.19-.38,.62-.92,.54-1.96,.85-4.11,1.46-7.03,1.31,.04-.38-.65-.08-.92-.19,0-.38-.46-.38-.92-.35-.42-.46-.85-.88-1.27-1.31Zm5.88,0c1.65-.46,3.19-.81,4.61-1.46,1.38-.65,2.5-1.61,3.69-2.42,1.38-1.81,3-3.38,3.5-6.07,.62-.54,.65-1.62,.92-2.42,.15-.61-.19-.77-.35-1.08,.65-.04,.38-.88,.35-1.11-.04-1-1.11-2.15-1.46-2.77-.58-.23-1.27-.35-1.65-.73-.88,.08-1.23,.23-2.04,0-.27,.08-.46,.27-.54,.54-.73,.15-1.11,.62-1.69,.92-.69,.19-1.04,.81-1.85,.92-1.84,2.38-4.69,3.8-6.26,6.46-.81,.96-1.65,1.88-2.04,3.31-.73,.62-1.31,1.42-1.84,2.23-.54,.88-.88,1.88-1.65,2.57,.08,1-.5,1.35-.73,2.04,.62,0,.5-.73,.92-.92,.23-.38,.54-.69,.92-.92,.38-.85,1-1.46,1.31-2.38,.35-.15,.65-.5,.92-.77,.31-.27,.73-.5,.92-.92,.46-.73,1.31-1.11,1.65-2,.77-.42,.88-1.46,1.84-1.69,.58-.62,1-1.42,2.04-1.65,.15,.35,.65,.31,.73,.73-.08,1.31-.96,1.73-1.65,2.23-.35,.92-1.27,1.38-1.84,2.04-.65,.65-1.04,1.54-1.84,2.04-.08,.58-.58,.77-.92,1.08,0,.69-.96,.42-.77,1.31,.96,.96,2.92,.88,4.8,.92Z"/>
    <path class="cls-2" d="M339.22,128.04c0-.08-1.73,2-2.31,2.27-.5,.23-.88,1-1.38,1-.46,.31-1.77,1.46-1.92,1.46-.23,0-.92,.73-1.38,.73-.08,0-.19-.04-.23-.04-.35,0-1.77,.65-2.31,.77-1.04,0-1.19,.19-1.65,.19-1.08-.04-2.11-.42-2.96-.92-.27-.69-.58-1.31-.58-2.23,0-1.85,1.08-4,2.23-5.88,.23-.38,.42-1,.73-1.5,1.5-2.46,3.15-5,4.8-7.38,.19-.35,.46-.65,.58-1.11,.46-.23,1.58-1.5,1.84-2.58,2.11-1.73,2.34-3.15,5.69-6.26,1.04-.96,3.15-1.65,3.15-2.23,.46,0,.61,.23,1.04,.23,.08,0,.15,0,.27-.04,.15,.54,.38,1,.38,1.69,0,1-.58,3.27-1.15,4.42-.19,.35-.54,.46-.54,.92-1.31,3.54-3.15,6-5.73,8.65-.77,.81-1.77,1.5-2.19,2.58-1,.46-2.54,1.42-2.77,2.04-.35,0-.35,.12-.38,.38-.85,.23-1.54,.69-2.23,1.11-.46,.61-1.46,.73-1.65,1.65-.81,.11-1,.85-1.84,.92-.15,.62-.38,1.38-.38,2.15,0,1.23,.85,1.35,1.62,1.35,3.04,0,5.8-2.04,7.38-3.11,1.73-1.19,3.15-2.23,4.15-3.31,.12,.04-.27,2.23-.27,2.07Zm2.46-20.37c-.85,1.04-2.04,2.04-2.77,2.96-.42,.54-1.85,1.81-1.85,2,0,.62-.54,.62-.54,1.31-1.35,.62-1.69,1.92-1.69,2.23-1.27,.69-1.73,2.31-2,2.57-.15,.12-.5-.04-.58,.19-.23,1.61-.92,1.58-.92,1.96,0,.19-.38,.11-.38,.31,0,.15-.58,1.23-.85,1.23,0,0-.46,1.15-.46,1,0,.38-1.08,1.96-1.38,2.23,1.38,0,4.42-3.38,5.57-4,.08,0,.19,.04,.23,.04,.42,0,1.81-1.77,2.27-2.23,1.5-1.5,2.77-3.23,4.23-4.8,.27-1.04,.85-1.96,1.31-2.96,.23,.12,.19-.11,.19-.27,0-.5,.77-2,1.27-2.65-.04-.12-.04-.23-.04-.35,0-.58,.35-.96,.35-1.35,0-.35-.31-.46-.58-.46-.58,0-1,.65-1.38,1.04Z"/>
    <path class="cls-2" d="M354.44,129.16c-.58,.92-5.69,3.96-8.57,4.15-2.42,.15-4.65-.42-6.11-1.42-.88-.11-1.19-1.15-1.11-1.84-.15-.77-.38-1.73-.15-2.61,0,0,.15-.08,.15-.19,.11-.38,.73-2.23,1.19-2.42,.19-.54,.38-1.11,.92-1.31,.42-1.04,1.46-1.5,2-2.38,1.04-.46,2.04-.92,2.77-1.69,1.35,.11,1.88-.58,3.15-.54,.54,.42,.58,.92,.54,1.65,0,.31-.08,.23-.15,.38-.15,.27-.08,.92-.38,1.27,0,1.5-1.42,3.15-1.54,4.5-.54,.27-.92,1.08-1.27,1.5-.35,.42-.88,.58-1.11,1.08-.88,.31-1.35,1-2.23,1.31,.58,.5,1.5,.73,2.04,.88h.38c2.04-.12,5.07-1.38,6.69-2.58,.35-.27,1.11-.65,1.46-.81,.35-.11,1.08-.5,1.46-.5,0,.08,0,1.38-.11,1.58Zm-8.72-7.69c-1.11,.62-1.73,1.77-2.77,2.23-.69,1.27-2.42,3.46-2.46,5.42,.58,.04,1.27-.27,1.5-.38,.46-.27,.73-.42,1.11-.73,1.15-.92,2.65-3.57,3.34-4.69,.35-.54,.77-1.11,.77-1.85-.04-.11-.04-.35-.19-.35-.5,.35-1,.19-1.31,.35Z"/>
    <path class="cls-2" d="M361.86,130.97c-.08-.27-1.27,.31-1.31,.54-.92,.5-2.15,.69-3.15,1.11-.19,.42-.54,.08-.92,.19-.08,.04-.46,.35-.54,.38-.96,.15-1.96-.04-2.77,.15-.12-.5-.77-.46-.73-1.08-.15-.69-.04-1.35,.11-1.69,.35-.73,1.31-2.31,1.92-2.77,1.19-1,2.54-3.34,3.8-4.27,.12-.42,.54-.58,.92-.73,.04-.54,.58-.54,.73-.92,.35-.23,.62-.5,.92-.77,.35-.15,.23-.73,.92-.54,.77-.08,.5,.85,.92,1.11-.19,1.15-1.35,1.35-1.65,2.38-.96,.35-1.15,1.5-1.88,2.04-.96,.38-1.84,2.27-2.69,2.81-.46,.81-1.5,1.08-1.65,2.23,.77,.5,1.92-.15,2.42-.58,1.38-.11,2.46-.73,3.5-1.27,1-.54,1.92-.96,2.92-1.54,.77-.31,.77-.85,1.42-1.23,.81-.23,1.58-.92,2.54-1,.42,1.19-.27,2.34-2,3.23-.27,.38-.88,.58-1.19,.92-.5,.58-2.15,.46-2.58,1.27Zm7.73-21.6c.38,.73,.5,1.73,.58,2.77-.5,.65-1.81,.31-2.42,0-.04-1.58-.04-3.11,1.84-2.77Z"/>
    <path class="cls-2" d="M383.5,129.51c-.65,.23-.81,.54-1.84,1-.65,.58-1,.42-1.69,.96-1.42,1-3.19,1.11-4.69,2.04-1.08,.04-2.5,.5-3.34-.38-.04-.92,.27-1.65,.58-2.19,.04-.08-.08-.35,0-.38,.19-.15,.04-.31,.19-.54,.04-.11,.27-.04,.35-.19,.19-.31,.19-.5,.38-.73,.11-.19,.38-.35,.54-.58,.04-.04-.04-.31,0-.35,.19-.15,.23-.19,.38-.38,.38-.54,1.58-2.8,2.04-3.65-1.54,.54-4.88,3.04-6.03,4.07-.35,.35-.92,.73-1.15,1.15-.85,.54-1.11,1.54-1.92,2.11-.62,.04-.54,.81-1.11,.92-.38,.27-.69,.65-1.11,.92-.96-.11-1.19,.5-1.69-.19-.08-.92,.42-1.27,.73-1.84,.5-.35,.77-.96,1.11-1.46,.58-1.11,2.15-3.27,2.61-4.57,.15-.65,.85-3.88,1.04-4.34,.27-.65,.69-.58,1.62-.42,.65,.62,0,4-.46,4.77,.27,.11,0,.19,0,.38h-.19c.12,.54,.31-.27,.58-.19,.35,0,.11-.5,.62-.35,.19-.5,.73-.65,.92-1.11,.42,.12,.58-.19,.92-.38,.5-.27,.92-.5,1.46-.92,.19-.11,.38-.42,.58-.54,.88-.62,2.31-1.08,3.15-1.84,.65-.31,2.23-1.08,3.15-.58,.54,1.19-.15,2.34-.92,2.77,.08,.73-.77,.58-.73,1.31-.54,.08-.42,.81-.92,.92-.27,1.04-1.61,2.96-2.23,3.61-.23,.5-.46,.92-.77,1.31-.54,.08-.35,.88-.73,1.11,.31,.5,.69-.42,1.11-.38,.38-.15,1,.12,1.31-.15,.5-.04,.5-.23,.92-.35,2-.85,2.61-.69,4.27-1.88,.81-.31,.73-.23,1.38-.69,.46-.31,.69-.58,.96-.85,.31-.11,.85-.58,1.11-.69,.73-.38,1.31-1,2.42-1.04,.19,1.81-.23,2.54-.81,2.57-.35,0-.96,.23-1,.38-.77,.65-2.23,1.46-3.07,1.84Z"/>
    <path class="cls-2" d="M416.82,135.23c-.15-.23-.23-.5-.23-.77,0-.58,.23-1.23,.42-1.61v-2.77c-.35-1.19-1.15-1.92-1.31-3.31-.77-1.23-2.34-2.19-2.57-3.15-.27-.35-.92-.27-.92-.92-.12,.04-.19,.04-.27,.04-.54,0-.69-.38-1.23-.42-1,.12-1.27,.96-1.84,1.5-.62,.38-1.08,1-1.46,1.65-.96,.5-1.81,1.15-2.23,2.23,.23,1.5,.85,2.61,1.69,3.5,.23,.46,1.46,.08,1.46,.92,0,.11-.42,.61-.54,.61-.65,0-1.23-.65-1.84-.65-.04,0-.12,.04-.19,.04-.23-.46-.65-.73-1.11-.92-.31-.81-.85-1.38-1.11-2.23-1.04,0-1.08,1-1.84,1.31-.15,.19-.62,.92-.77,.92-.08,0-.19-.04-.27-.04-.19,0-.15,.5-.42,.77-.5,.46-1.61,1.5-1.92,1.5-.19,0-.42-.04-.62-.04-.27,0-.15,.19-.38,.19-.58,0-.81-.85-.81-1,0-.85,.46-1.23,.96-1.58,.62-.15,.77-1.31,1.46-1.31,.69-1.15,2.19-1.46,2.77-2.77,.88-.27,1.35-1,2.04-1.46-.04-.12-.04-.23-.04-.35,0-1,.77-1.27,.77-2.23,.85,0,1.27-1.5,2.04-1.84,1.08-.19,1.84-.73,3.15-.73,1.04-1.38,2.73-2.04,3.84-3.34,1.38-1.04,2.69-2.11,4.07-3.11,.54-.92,1.65-1.31,2.23-2.23,1.5-.46,2.19-1.69,4-1.69,.11,0,.27,.04,.46,.04,.54,0,.88-.88,1.31-.88,.08,0,.19,.04,.31,.15h.12c.61,0,.85,1.46,.85,1.42,0,1.5-1.15,2.65-1.15,4.23v.23c-1.11,2.04-1.69,4.57-2.96,6.46v1.11c-.77,.5-1.08,2.07-1.65,3.5-.58,1.38-1.65,3.5-1.65,5,0,.73-.23,1.35-.23,1.77,0,.31,.08,.65,.08,.96,0,.27-.08,.5-.23,.58,.04,.08,.04,.15,.04,.19,0,.15-.12,.19-.27,.19-.12,0-.27-.04-.38-.04-.31,0-.69,.42-1.27,.42-.12,0-.19,0-.31-.04Zm5.61-21.98c-.19,.73-1,.96-1.5,1.31-.58,.38-1.04,.81-1.65,1.08-.58,.27-.65,1.19-1.54,1.15h-.19c-.38,.81-1.42,.96-1.84,1.69-.77,.23-1.08,.88-1.84,1.08v.15c0,.5-1.46,.58-1.46,1.54,1.54,.62,2.23,2.27,3.69,3.11,.15,.69,.81,.92,1.08,1.5,.31,.69,.73,2.15,1.31,2.19-.04-.11-.04-.19-.04-.27,0-.77,.69-.88,.77-1.58,.23-1.08,.85-1.73,.92-2.96,.46-.31,.46-1.11,.92-1.46,.08-1.04,.38-1.84,.92-2.38,0-1,.38-1.58,.73-2.23,.15-.88,.85-1.58,.85-2.31,0-.38,.35-.69,.46-1,.11-.42,0-.96,.38-1.31-.04-.08-.04-.19-.15-.19h-.04c-.35,.62-1.15,.62-1.77,.88Z"/>
    <path class="cls-2" d="M436,130.97c-.08-.27-1.27,.31-1.31,.54-.92,.5-2.15,.69-3.15,1.11-.19,.42-.54,.08-.92,.19-.08,.04-.46,.35-.54,.38-.96,.15-1.96-.04-2.77,.15-.12-.5-.77-.46-.73-1.08-.15-.69-.04-1.35,.11-1.69,.35-.73,1.31-2.31,1.92-2.77,1.19-1,2.54-3.34,3.8-4.27,.12-.42,.54-.58,.92-.73,.04-.54,.58-.54,.73-.92,.35-.23,.62-.5,.92-.77,.35-.15,.23-.73,.92-.54,.77-.08,.5,.85,.92,1.11-.19,1.15-1.35,1.35-1.65,2.38-.96,.35-1.15,1.5-1.88,2.04-.96,.38-1.84,2.27-2.69,2.81-.46,.81-1.5,1.08-1.65,2.23,.77,.5,1.92-.15,2.42-.58,1.38-.11,2.46-.73,3.5-1.27,1-.54,1.92-.96,2.92-1.54,.77-.31,.77-.85,1.42-1.23,.81-.23,1.58-.92,2.54-1,.42,1.19-.27,2.34-2,3.23-.27,.38-.88,.58-1.19,.92-.5,.58-2.15,.46-2.58,1.27Zm7.73-21.6c.38,.73,.5,1.73,.58,2.77-.5,.65-1.81,.31-2.42,0-.04-1.58-.04-3.11,1.84-2.77Z"/>
    <path class="cls-2" d="M455.84,126.66s.5,1.46,.5,1.46c0,0-1.35,1.42-1.38,1.35-2,1.27-3.88,2.92-6.46,3.5-1.23,.12-2.61-.08-3.5-.19-.38-.04-.5,0-.92-.19-.08-.04,0-.15-.19-.19-.5,0-.77-.69-1.11-1.11-.08-.85,.27-1.31,.38-2,1.04-1.23,1.61-2.58,2.77-3.69-.08-.81-.23-1.92-.58-2.42-1.11,.27-4.3,4.84-5.38,5.15,0,0-1.38-1-1.35-.96,.58-.5,1.62-1.84,2.11-2.23,.5-.58,2.38-3.15,3.07-3.5,.04-.42,1.27-1.19,1.58-1.46,.19-.23,.04-.96,.88-.69,.88,.23,.77,1.42,.92,2.42,.31,.46,.42,1.15,.73,1.65-.15,.88,.58,1.27,.58,2.04-.35,0-.27,.54-.38,.73-.15,.23-.42,.38-.54,.54-.42,1.08-1.08,1.5-1.65,2.42-.19,.54-.92,.54-.73,1.46,.73,.42,1.88,.5,3.11,.38,2.15-.23,4.11-1.96,5.57-3.04,.58-.5,1.96-1.38,1.96-1.42Z"/>
  </g>
</svg>